<svg width="74" height="74" viewBox="0 0 74 74" fill="none" xmlns="http://www.w3.org/2000/svg" xmlns:xlink="http://www.w3.org/1999/xlink">
<path d="M37,18.5C34.713,18.5 32.478,19.178 30.576,20.449C28.675,21.719 27.193,23.525 26.318,25.638C25.443,27.75 25.214,30.075 25.66,32.318C26.106,34.561 27.207,36.621 28.824,38.238C30.441,39.855 32.501,40.957 34.744,41.403C36.987,41.849 39.312,41.62 41.425,40.745C43.538,39.87 45.343,38.388 46.614,36.486C47.884,34.585 48.563,32.349 48.563,30.063C48.563,26.996 47.344,24.055 45.176,21.887C43.008,19.718 40.067,18.5 37,18.5Z" fill="#A1849B"/>
<path d="M37,4.625C30.597,4.625 24.337,6.524 19.013,10.081C13.689,13.639 9.54,18.695 7.089,24.611C4.639,30.526 3.998,37.036 5.247,43.316C6.496,49.596 9.58,55.365 14.107,59.893C18.635,64.42 24.404,67.504 30.684,68.753C36.964,70.002 43.474,69.361 49.389,66.911C55.305,64.46 60.361,60.311 63.919,54.987C67.476,49.663 69.375,43.403 69.375,37C69.365,28.417 65.951,20.188 59.882,14.118C53.812,8.049 45.583,4.635 37,4.625L37,4.625ZM55.482,57.641C55.435,54.608 54.2,51.714 52.04,49.584C49.881,47.453 46.971,46.256 43.938,46.25L30.063,46.25C27.029,46.256 24.119,47.453 21.96,49.584C19.8,51.714 18.565,54.608 18.519,57.641C14.325,53.897 11.368,48.967 10.038,43.504C8.709,38.042 9.07,32.304 11.074,27.051C13.078,21.798 16.63,17.278 21.26,14.089C25.89,10.9 31.379,9.192 37.001,9.192C42.623,9.192 48.113,10.9 52.743,14.089C57.373,17.278 60.925,21.798 62.929,27.051C64.932,32.304 65.294,38.042 63.964,43.504C62.635,48.967 59.677,53.897 55.484,57.641L55.482,57.641Z" fill="#A1849B"/>
</svg>
