<svg width="80" height="80" viewBox="0 0 80 80" fill="none" xmlns="http://www.w3.org/2000/svg" xmlns:xlink="http://www.w3.org/1999/xlink">
<path d="M40,10C23.458,10 10,23.458 10,40C10,56.542 23.458,70 40,70C56.542,70 70,56.542 70,40C70,23.458 56.542,10 40,10ZM54.267,54.267C53.798,54.736 53.163,54.999 52.5,54.999C51.837,54.999 51.202,54.736 50.733,54.267L44.039,47.575C41.211,49.521 37.758,50.34 34.358,49.871C30.957,49.402 27.855,47.679 25.659,45.041C23.463,42.402 22.333,39.038 22.489,35.609C22.646,32.18 24.079,28.933 26.506,26.506C28.933,24.079 32.18,22.646 35.609,22.489C39.038,22.333 42.402,23.463 45.041,25.659C47.679,27.855 49.402,30.957 49.871,34.358C50.34,37.758 49.521,41.211 47.575,44.039L54.267,50.733C54.736,51.202 54.999,51.837 54.999,52.5C54.999,53.163 54.736,53.798 54.267,54.267L54.267,54.267Z" fill="#A1849B"/>
<path d="M36.25,45C41.083,45 45,41.082 45,36.25C45,31.418 41.083,27.5 36.25,27.5C31.417,27.5 27.5,31.418 27.5,36.25C27.5,41.082 31.417,45 36.25,45Z" fill="#A1849B"/>
</svg>
