<svg width="98" height="90" viewBox="0 0 98 90" fill="none" xmlns="http://www.w3.org/2000/svg" xmlns:xlink="http://www.w3.org/1999/xlink">
<path d="M38.382,64.286L63.317,45L38.382,25.714L38.382,64.286ZM93.921,13.95C94.546,16.971 94.978,21.021 95.267,26.164C95.603,31.307 95.747,35.743 95.747,39.6L96.035,45C96.035,59.079 95.267,69.429 93.921,76.05C92.72,81.836 89.934,85.564 85.61,87.171C83.352,88.007 79.22,88.586 72.878,88.971C66.632,89.421 60.915,89.614 55.63,89.614L47.991,90C27.861,90 15.321,88.971 10.373,87.171C6.049,85.564 3.262,81.836 2.061,76.05C1.437,73.029 1.004,68.979 0.716,63.836C0.38,58.693 0.236,54.257 0.236,50.4L-0.053,45C-0.053,30.921 0.716,20.571 2.061,13.95C3.262,8.164 6.049,4.436 10.373,2.829C12.631,1.993 16.763,1.414 23.104,1.029C29.35,0.579 35.067,0.386 40.352,0.386L47.991,0C68.122,0 80.661,1.029 85.61,2.829C89.934,4.436 92.72,8.164 93.921,13.95L93.921,13.95Z" fill="#525050"/>
</svg>
