<svg width="56" height="32" viewBox="0 0 56 32" fill="none" xmlns="http://www.w3.org/2000/svg" xmlns:xlink="http://www.w3.org/1999/xlink">
<path d="M15.5,31C11.333,31 7.792,29.542 4.875,26.625C1.958,23.708 0.5,20.167 0.5,16C0.5,11.833 1.958,8.292 4.875,5.375C7.792,2.458 11.333,1 15.5,1C18.875,1 21.823,1.948 24.345,3.843C26.865,5.739 28.625,8.125 29.625,11L50.5,11C51.875,11 53.053,11.489 54.033,12.468C55.011,13.448 55.5,14.625 55.5,16C55.5,17.5 54.979,18.708 53.938,19.625C52.896,20.542 51.75,21 50.5,21L50.5,26C50.5,27.375 50.011,28.552 49.033,29.533C48.053,30.511 46.875,31 45.5,31C44.125,31 42.947,30.511 41.967,29.533C40.989,28.552 40.5,27.375 40.5,26L40.5,21L29.625,21C28.625,23.875 26.865,26.261 24.345,28.158C21.823,30.053 18.875,31 15.5,31ZM15.5,21C16.875,21 18.052,20.51 19.03,19.53C20.01,18.552 20.5,17.375 20.5,16C20.5,14.625 20.01,13.448 19.03,12.468C18.052,11.489 16.875,11 15.5,11C14.125,11 12.948,11.489 11.97,12.468C10.99,13.448 10.5,14.625 10.5,16C10.5,17.375 10.99,18.552 11.97,19.53C12.948,20.51 14.125,21 15.5,21Z" fill="#525050"/>
</svg>
