<svg width="200" height="170" viewBox="0 0 200 170" fill="none" xmlns="http://www.w3.org/2000/svg" xmlns:xlink="http://www.w3.org/1999/xlink">
<path d="M186.667,170L13.333,170C9.797,170 6.406,168.209 3.905,165.021C1.405,161.833 0,157.509 0,153L0,17C0,12.491 1.405,8.167 3.905,4.979C6.406,1.791 9.797,0 13.333,0L186.667,0C190.203,0 193.594,1.791 196.095,4.979C198.595,8.167 200,12.491 200,17L200,153C200,157.509 198.595,161.833 196.095,165.021C193.594,168.209 190.203,170 186.667,170L186.667,170ZM154.406,119.637L154.406,127.5C155.289,127.656 156.306,127.748 157.339,127.748L157.428,127.748L157.422,127.748C165.167,127.748 168.844,123.909 172.011,112.54L185.978,62.603L177.9,62.603L168.533,101.178L168.367,101.178L159,62.603L150.689,62.603L164.161,110.153L163.439,113.043C163.192,115.044 162.365,116.854 161.121,118.113C159.877,119.373 158.307,119.99 156.722,119.843L156.744,119.843C155.965,119.801 155.187,119.733 154.411,119.637L154.406,119.637ZM31.739,57.049L31.594,57.049C29.256,57.13 26.973,57.983 24.969,59.523C22.966,61.064 21.309,63.24 20.161,65.84L20.128,65.925C15.439,76.21 18.422,91.949 23.611,101.533C26.044,106.066 28.711,110.5 32.228,110.5L32.417,110.5C33.889,110.38 35.25,109.891 36.478,109.105L36.417,109.14C37.9,108.191 39.644,107.631 41.489,107.61L41.494,107.61C43.278,107.624 44.961,108.177 46.444,109.14L46.383,109.105C47.578,109.898 48.983,110.38 50.478,110.422L50.639,110.422C54.556,110.33 57.011,105.747 59.183,101.71C60.733,98.848 62.017,95.554 62.917,92.034L62.978,91.765L62.978,91.694L62.878,91.637C60.709,90.397 58.866,88.388 57.568,85.85C56.27,83.312 55.571,80.352 55.556,77.322L55.556,77.315C55.575,74.639 56.122,72.012 57.146,69.676C58.17,67.34 59.639,65.371 61.417,63.948L61.467,63.913L61.567,63.828C60.426,61.717 58.911,59.98 57.144,58.756C55.378,57.533 53.41,56.858 51.4,56.787L50.794,56.787C48.412,56.941 46.075,57.679 43.911,58.962L44.028,58.898C43.008,59.526 41.913,59.935 40.789,60.109L40.739,60.116C39.529,59.954 38.352,59.52 37.261,58.834L37.322,58.87C35.585,57.813 33.705,57.19 31.783,57.035L31.739,57.035L31.739,57.049ZM132.367,69.912C137.256,69.912 139.956,72.831 139.956,78.122L139.956,81.728L130.033,82.478C120.728,83.194 115.811,88.003 115.811,96.383C115.827,98.399 116.177,100.388 116.838,102.22C117.499,104.051 118.455,105.685 119.645,107.013C120.835,108.34 122.232,109.333 123.743,109.926C125.255,110.518 126.847,110.697 128.417,110.45L128.361,110.458L128.722,110.465C133.55,110.465 137.772,107.15 140.061,102.198L140.094,102.12L140.261,102.12L140.261,109.926L147.622,109.926L147.622,77.442C147.622,68.021 141.728,61.944 132.606,61.944C124.194,61.944 117.939,68.092 117.689,76.557L124.856,76.557C125.275,74.475 126.269,72.655 127.656,71.434C129.043,70.212 130.73,69.669 132.406,69.905L132.372,69.898L132.367,69.912ZM77.778,44.653L77.778,109.933L85.728,109.933L85.728,87.607L96.711,87.607C98.974,87.76 101.238,87.309 103.356,86.282C105.475,85.256 107.402,83.676 109.013,81.645C110.625,79.614 111.887,77.176 112.717,74.487C113.547,71.798 113.927,68.918 113.833,66.031L113.833,66.073C113.932,63.217 113.562,60.366 112.747,57.703C111.932,55.04 110.69,52.623 109.1,50.607C107.51,48.59 105.608,47.02 103.515,45.994C101.422,44.969 99.184,44.513 96.944,44.653L96.983,44.653L77.778,44.653ZM51.406,39.667C48.23,40.05 45.291,41.978 43.2,45.05L43.189,45.071C42.148,46.559 41.351,48.296 40.845,50.181C40.338,52.067 40.132,54.062 40.239,56.05L40.239,56.008C40.428,56.008 40.628,56.036 40.85,56.036C42.33,55.934 43.777,55.435 45.096,54.572C46.415,53.709 47.577,52.502 48.506,51.028L48.522,51C50.62,47.834 51.657,43.743 51.411,39.61L51.411,39.66L51.406,39.667ZM130.494,102.715C126.283,102.715 123.556,100.13 123.556,96.135C123.556,92.012 126.167,89.64 131.111,89.264L139.944,88.556L139.944,92.246C139.895,93.743 139.606,95.212 139.095,96.561C138.584,97.91 137.862,99.112 136.973,100.092C136.085,101.072 135.048,101.81 133.927,102.26C132.806,102.71 131.624,102.862 130.456,102.708L130.494,102.715ZM94.839,79.128L85.706,79.128L85.706,53.196L94.872,53.196C96.284,52.949 97.721,53.108 99.079,53.661C100.436,54.213 101.68,55.145 102.719,56.389C103.757,57.632 104.565,59.156 105.083,60.849C105.601,62.542 105.815,64.36 105.711,66.173L105.711,66.13C105.812,67.952 105.593,69.779 105.068,71.478C104.544,73.177 103.728,74.705 102.68,75.95C101.632,77.195 100.379,78.126 99.013,78.673C97.646,79.22 96.201,79.371 94.783,79.114L94.833,79.121L94.839,79.128Z" fill="#525050"/>
</svg>
