<svg width="26" height="46" viewBox="0 0 26 46" fill="none" xmlns="http://www.w3.org/2000/svg" xmlns:xlink="http://www.w3.org/1999/xlink">
<path d="M0.684,43.233C0.1,42.65 -0.191,41.959 -0.191,41.161C-0.191,40.365 0.1,39.675 0.684,39.092L17.775,22L0.625,4.85C0.081,4.306 -0.191,3.625 -0.191,2.808C-0.191,1.992 0.1,1.292 0.684,0.708C1.267,0.125 1.958,-0.167 2.756,-0.167C3.552,-0.167 4.242,0.125 4.825,0.708L24.425,20.367C24.659,20.6 24.824,20.853 24.922,21.125C25.019,21.397 25.067,21.689 25.067,22C25.067,22.311 25.019,22.603 24.922,22.875C24.824,23.147 24.659,23.4 24.425,23.633L4.767,43.292C4.222,43.836 3.552,44.108 2.756,44.108C1.958,44.108 1.267,43.817 0.684,43.233Z" fill="#525050"/>
</svg>
