<svg width="66" height="66" viewBox="0 0 66 66" fill="none" xmlns="http://www.w3.org/2000/svg" xmlns:xlink="http://www.w3.org/1999/xlink">
<path d="M33,0C14.775,0 0,14.775 0,33C0,51.225 14.775,66 33,66C51.225,66 66,51.225 66,33C66,14.775 51.225,0 33,0ZM16.367,13.942L22.24,15.787C23.018,16.042 23.536,16.764 23.626,17.503L23.956,20.738L50.551,23.707C51.693,23.928 52.496,24.959 52.336,26.019L50.684,35.324C50.474,36.297 49.668,36.965 48.771,36.976L25.145,36.976L24.682,39.614L47.119,39.614C48.293,39.656 49.152,40.549 49.166,41.592C49.117,42.782 48.158,43.561 47.119,43.574L22.305,43.574C21.053,43.471 20.134,42.479 20.327,41.266L21.382,35.457L19.731,19.219L15.179,17.769C14.651,17.593 14.254,17.262 13.99,16.778C13.491,15.731 13.957,14.572 14.848,14.071C15.357,13.807 15.854,13.774 16.367,13.942L16.367,13.942ZM25.31,44.714C27.019,44.714 28.404,46.099 28.404,47.808C28.404,49.517 27.019,50.902 25.31,50.902C23.601,50.902 22.216,49.517 22.216,47.808C22.216,46.099 23.601,44.714 25.31,44.714ZM43.47,44.714C45.178,44.714 46.563,46.099 46.563,47.808C46.563,49.517 45.178,50.902 43.47,50.902C41.761,50.902 40.376,49.517 40.376,47.808C40.376,46.099 41.761,44.714 43.47,44.714Z" fill="#A1849B"/>
</svg>
