<svg width="74" height="52" viewBox="0 0 74 52" fill="none" xmlns="http://www.w3.org/2000/svg" xmlns:xlink="http://www.w3.org/1999/xlink">
<path d="M36.001,1C19.334,1 5.101,11.367 -0.666,26C5.101,40.633 19.334,51 36.001,51C52.667,51 66.901,40.633 72.667,26C66.901,11.367 52.667,1 36.001,1ZM36.001,42.667C26.801,42.667 19.334,35.2 19.334,26C19.334,16.8 26.801,9.333 36.001,9.333C45.201,9.333 52.667,16.8 52.667,26C52.667,35.2 45.201,42.667 36.001,42.667ZM36.001,16C30.467,16 26.001,20.467 26.001,26C26.001,31.533 30.467,36 36.001,36C41.534,36 46.001,31.533 46.001,26C46.001,20.467 41.534,16 36.001,16Z" fill="#525050"/>
</svg>
