<svg width="36" height="60" viewBox="0 0 36 60" fill="none" xmlns="http://www.w3.org/2000/svg" xmlns:xlink="http://www.w3.org/1999/xlink">
<path d="M13,51.333L23,51.333L23,48.666L13,48.666L13,51.333ZM5.5,59.333C4.125,59.333 2.948,58.811 1.97,57.767C0.99,56.722 0.5,55.466 0.5,53.999L0.5,5.999C0.5,4.533 0.99,3.277 1.97,2.231C2.948,1.188 4.125,0.666 5.5,0.666L30.5,0.666C31.875,0.666 33.053,1.188 34.033,2.231C35.011,3.277 35.5,4.533 35.5,5.999L35.5,53.999C35.5,55.466 35.011,56.722 34.033,57.767C33.053,58.811 31.875,59.333 30.5,59.333L5.5,59.333ZM5.5,40.666L30.5,40.666L30.5,13.999L5.5,13.999L5.5,40.666Z" fill="#525050"/>
</svg>
