<svg width="34" height="20" viewBox="0 0 34 20" fill="none" xmlns="http://www.w3.org/2000/svg" xmlns:xlink="http://www.w3.org/1999/xlink">
<path d="M17,19.677C16.611,19.677 16.235,19.604 15.871,19.458C15.505,19.313 15.201,19.118 14.958,18.875L1.541,5.458C1.007,4.924 0.739,4.243 0.739,3.417C0.739,2.59 1.007,1.91 1.541,1.375C2.076,0.84 2.757,0.573 3.583,0.573C4.409,0.573 5.09,0.84 5.625,1.375L17,12.75L28.375,1.375C28.909,0.84 29.59,0.573 30.416,0.573C31.243,0.573 31.923,0.84 32.458,1.375C32.993,1.91 33.26,2.59 33.26,3.417C33.26,4.243 32.993,4.924 32.458,5.458L19.041,18.875C18.75,19.167 18.434,19.373 18.093,19.493C17.753,19.616 17.389,19.677 17,19.677L17,19.677Z" fill="#525050"/>
</svg>
