<svg width="84" height="84" viewBox="0 0 84 84" fill="none" xmlns="http://www.w3.org/2000/svg" xmlns:xlink="http://www.w3.org/1999/xlink">
<path d="M44.916,55.75L55.75,44.916C56.583,44.083 57,43.111 57,42C57,40.889 56.583,39.916 55.75,39.083L44.812,28.146C44.048,27.382 43.094,27.016 41.95,27.05C40.802,27.086 39.847,27.486 39.083,28.25C38.319,29.014 37.937,29.986 37.937,31.166C37.937,32.347 38.319,33.319 39.083,34.083L42.833,37.833L29.396,37.833C28.215,37.833 27.243,38.232 26.479,39.029C25.715,39.829 25.333,40.819 25.333,42C25.333,43.18 25.733,44.169 26.533,44.966C27.33,45.766 28.319,46.166 29.5,46.166L42.833,46.166L38.979,50.021C38.215,50.784 37.85,51.74 37.883,52.887C37.919,54.032 38.319,54.986 39.083,55.75C39.847,56.514 40.819,56.896 42,56.896C43.18,56.896 44.152,56.514 44.916,55.75L44.916,55.75ZM42,83.666C36.236,83.666 30.819,82.572 25.75,80.383C20.68,78.197 16.271,75.229 12.521,71.479C8.771,67.729 5.802,63.319 3.616,58.25C1.427,53.18 0.333,47.764 0.333,42C0.333,36.236 1.427,30.819 3.616,25.75C5.802,20.68 8.771,16.271 12.521,12.521C16.271,8.771 20.68,5.801 25.75,3.612C30.819,1.426 36.236,0.333 42,0.333C47.764,0.333 53.18,1.426 58.25,3.612C63.319,5.801 67.729,8.771 71.479,12.521C75.229,16.271 78.197,20.68 80.383,25.75C82.572,30.819 83.666,36.236 83.666,42C83.666,47.764 82.572,53.18 80.383,58.25C78.197,63.319 75.229,67.729 71.479,71.479C67.729,75.229 63.319,78.197 58.25,80.383C53.18,82.572 47.764,83.666 42,83.666ZM42,75.333C51.236,75.333 59.101,72.087 65.596,65.596C72.087,59.101 75.333,51.236 75.333,42C75.333,32.764 72.087,24.898 65.596,18.404C59.101,11.912 51.236,8.666 42,8.666C32.764,8.666 24.9,11.912 18.408,18.404C11.914,24.898 8.666,32.764 8.666,42C8.666,51.236 11.914,59.101 18.408,65.596C24.9,72.087 32.764,75.333 42,75.333Z" fill="#525050"/>
</svg>
