<svg width="60" height="62" viewBox="0 0 60 62" fill="none" xmlns="http://www.w3.org/2000/svg" xmlns:xlink="http://www.w3.org/1999/xlink">
<path d="M29.809,45.775C30.659,45.775 31.372,45.487 31.948,44.911C32.522,44.337 32.809,43.625 32.809,42.775L32.809,33.775L41.884,33.775C42.734,33.775 43.434,33.487 43.984,32.911C44.534,32.337 44.809,31.625 44.809,30.775C44.809,29.925 44.521,29.212 43.945,28.636C43.371,28.062 42.659,27.775 41.809,27.775L32.809,27.775L32.809,18.7C32.809,17.85 32.522,17.15 31.948,16.6C31.372,16.05 30.659,15.775 29.809,15.775C28.959,15.775 28.247,16.062 27.673,16.636C27.097,17.212 26.809,17.925 26.809,18.775L26.809,27.775L17.734,27.775C16.884,27.775 16.184,28.062 15.634,28.636C15.084,29.212 14.809,29.925 14.809,30.775C14.809,31.625 15.096,32.337 15.67,32.911C16.246,33.487 16.959,33.775 17.809,33.775L26.809,33.775L26.809,42.85C26.809,43.7 27.097,44.4 27.673,44.95C28.247,45.5 28.959,45.775 29.809,45.775L29.809,45.775ZM29.809,60.775C25.659,60.775 21.759,59.987 18.109,58.411C14.459,56.837 11.284,54.7 8.584,52C5.884,49.3 3.747,46.125 2.173,42.475C0.597,38.825 -0.191,34.925 -0.191,30.775C-0.191,26.625 0.597,22.725 2.173,19.075C3.747,15.425 5.884,12.25 8.584,9.55C11.284,6.85 14.459,4.712 18.109,3.136C21.759,1.562 25.659,0.775 29.809,0.775C33.959,0.775 37.859,1.562 41.509,3.136C45.159,4.712 48.334,6.85 51.034,9.55C53.734,12.25 55.871,15.425 57.445,19.075C59.021,22.725 59.809,26.625 59.809,30.775C59.809,34.925 59.021,38.825 57.445,42.475C55.871,46.125 53.734,49.3 51.034,52C48.334,54.7 45.159,56.837 41.509,58.411C37.859,59.987 33.959,60.775 29.809,60.775Z" fill="#525050"/>
</svg>
