<svg width="50" height="46" viewBox="0 0 50 46" fill="none" xmlns="http://www.w3.org/2000/svg" xmlns:xlink="http://www.w3.org/1999/xlink">
<path d="M18.667,42.667L18.667,29.333L29.334,29.333L29.334,42.667C29.334,44.133 30.534,45.333 32,45.333L40,45.333C41.467,45.333 42.667,44.133 42.667,42.667L42.667,24L47.2,24C48.427,24 49.014,22.48 48.08,21.68L25.787,1.6C24.774,0.693 23.227,0.693 22.214,1.6L-0.08,21.68C-0.986,22.48 -0.426,24 0.8,24L5.334,24L5.334,42.667C5.334,44.133 6.534,45.333 8,45.333L16,45.333C17.467,45.333 18.667,44.133 18.667,42.667Z" fill="#525050"/>
</svg>
