<svg width="66" height="64" viewBox="0 0 66 64" fill="none" xmlns="http://www.w3.org/2000/svg" xmlns:xlink="http://www.w3.org/1999/xlink">
<path d="M31.084,62.417C30.32,61.653 29.92,60.681 29.884,59.5C29.85,58.319 30.216,57.347 30.979,56.583L51.396,36.167L4.834,36.167C3.653,36.167 2.663,35.767 1.863,34.967C1.066,34.169 0.667,33.181 0.667,32C0.667,30.819 1.066,29.829 1.863,29.029C2.663,28.232 3.653,27.833 4.834,27.833L51.396,27.833L30.979,7.417C30.216,6.653 29.85,5.681 29.884,4.5C29.92,3.319 30.32,2.347 31.084,1.583C31.848,0.819 32.82,0.438 34,0.438C35.181,0.438 36.153,0.819 36.917,1.583L64.417,29.083C64.834,29.431 65.13,29.864 65.304,30.383C65.477,30.906 65.563,31.444 65.563,32C65.563,32.556 65.477,33.076 65.304,33.563C65.13,34.049 64.834,34.5 64.417,34.917L36.917,62.417C36.153,63.181 35.181,63.563 34,63.563C32.82,63.563 31.848,63.181 31.084,62.417L31.084,62.417Z" fill="#7C7C7C"/>
</svg>
