<svg width="170" height="126" viewBox="0 0 170 126" fill="none" xmlns="http://www.w3.org/2000/svg" xmlns:xlink="http://www.w3.org/1999/xlink">
<path d="M54.984,62.61C54.984,66 52.12,68.58 48.492,68.58C45.777,68.58 43.769,67.135 43.769,64.415C43.769,61.025 46.574,58.305 50.176,58.305C52.923,58.305 54.989,59.89 54.989,62.61L54.984,62.61ZM23.757,49.14L22.37,49.14C21.93,49.14 21.483,49.42 21.425,49.89L20.155,57.31L22.578,57.225C25.824,57.225 28.331,56.81 28.921,53.28C29.601,49.555 27.093,49.14 23.757,49.14L23.757,49.14ZM107.578,49.14L106.25,49.14C105.718,49.14 105.362,49.42 105.304,49.89L104.066,57.31L106.425,57.225C110.26,57.225 112.917,56.39 112.917,52.225C112.885,49.28 110.085,49.14 107.572,49.14L107.578,49.14ZM170,13.11L170,110.89C169.998,114.427 168.505,117.818 165.848,120.318C163.191,122.819 159.588,124.224 155.831,124.225L14.163,124.225C10.405,124.224 6.802,122.819 4.146,120.318C1.489,117.818 -0.004,114.427 -0.006,110.89L-0.006,13.11C-0.004,9.574 1.489,6.183 4.146,3.683C6.802,1.182 10.405,-0.223 14.163,-0.225L155.831,-0.225C159.588,-0.223 163.191,1.182 165.848,3.683C168.505,6.183 169.998,9.574 170,13.11L170,13.11ZM37.867,50.72C37.867,44.885 33.086,42.94 27.625,42.94L15.82,42.94C15.439,42.943 15.072,43.078 14.789,43.318C14.506,43.559 14.326,43.889 14.285,44.245L9.445,72.605C9.355,73.16 9.801,73.715 10.391,73.715L16.001,73.715C16.798,73.715 17.536,72.91 17.626,72.13L18.954,64.74C19.252,62.74 22.849,63.435 24.267,63.435C32.709,63.435 37.872,58.715 37.872,50.715L37.867,50.72ZM62.719,53.165L57.109,53.165C55.988,53.165 55.93,54.695 55.871,55.445C54.16,53.085 51.68,52.665 48.875,52.665C41.644,52.665 36.125,58.635 36.125,65.22C36.125,70.635 39.726,74.165 45.48,74.165C48.136,74.165 51.44,72.805 53.3,70.86C53.128,71.422 53.028,72.001 53.002,72.585C53.002,73.225 53.3,73.695 53.948,73.695L59.027,73.695C59.824,73.695 60.504,72.89 60.652,72.11L63.665,54.25C63.755,53.72 63.309,53.165 62.719,53.165L62.719,53.165ZM74.672,80.36L93.473,54.635C93.622,54.495 93.622,54.355 93.622,54.165C93.622,53.695 93.181,53.195 92.676,53.195L87.008,53.195C86.744,53.205 86.486,53.273 86.256,53.394C86.025,53.515 85.828,53.685 85.68,53.89L77.86,64.725L74.614,54.31C74.492,53.994 74.271,53.719 73.982,53.521C73.692,53.323 73.346,53.211 72.988,53.2L67.468,53.2C66.964,53.2 66.523,53.7 66.523,54.17C66.523,54.505 72.276,69.95 72.781,71.42C71.984,72.475 66.73,79.365 66.73,80.2C66.73,80.7 67.171,81.09 67.675,81.09L73.344,81.09C73.609,81.074 73.867,81.001 74.097,80.876C74.327,80.751 74.524,80.578 74.672,80.37L74.672,80.36ZM121.688,50.72C121.688,44.885 116.906,42.94 111.445,42.94L99.726,42.94C99.333,42.937 98.953,43.068 98.654,43.307C98.356,43.547 98.159,43.88 98.1,44.245L93.319,72.58C93.26,73.135 93.701,73.69 94.265,73.69L100.315,73.69C100.905,73.69 101.346,73.275 101.495,72.8L102.823,64.745C103.12,62.745 106.722,63.44 108.135,63.44C116.519,63.44 121.682,58.72 121.682,50.72L121.688,50.72ZM146.534,53.165L140.924,53.165C139.803,53.165 139.745,54.695 139.655,55.445C138.029,53.085 135.521,52.665 132.658,52.665C125.428,52.665 119.908,58.635 119.908,65.22C119.908,70.635 123.51,74.165 129.263,74.165C132.01,74.165 135.314,72.805 137.083,70.86C136.993,71.275 136.786,72.165 136.786,72.585C136.786,73.225 137.083,73.695 137.731,73.695L142.837,73.695C143.634,73.695 144.314,72.89 144.462,72.11L147.475,54.25C147.565,53.72 147.119,53.165 146.529,53.165L146.534,53.165ZM160.554,43.915C160.554,43.36 160.113,42.945 159.608,42.945L154.147,42.945C153.706,42.945 153.26,43.28 153.201,43.695L148.42,72.585L148.335,72.725C148.335,73.225 148.776,73.695 149.366,73.695L154.237,73.695C154.976,73.695 155.714,72.89 155.773,72.11L160.554,44L160.554,43.915ZM133.991,58.305C130.39,58.305 127.585,61 127.585,64.415C127.585,67.11 129.651,68.58 132.366,68.58C135.909,68.58 138.773,66.025 138.773,62.61C138.805,59.89 136.738,58.305 133.991,58.305L133.991,58.305Z" fill="#525050"/>
</svg>
