<svg width="84" height="84" viewBox="0 0 84 84" fill="none" xmlns="http://www.w3.org/2000/svg" xmlns:xlink="http://www.w3.org/1999/xlink">
<path d="M39.187,55.854C39.951,56.618 40.907,56.982 42.054,56.946C43.198,56.912 44.152,56.514 44.916,55.75C45.68,54.986 46.062,54.014 46.062,52.833C46.062,51.653 45.68,50.68 44.916,49.917L41.166,46.167L54.604,46.167C55.784,46.167 56.757,45.767 57.52,44.967C58.284,44.169 58.666,43.18 58.666,42C58.666,40.819 58.268,39.829 57.47,39.029C56.67,38.232 55.68,37.833 54.5,37.833L41.166,37.833L45.02,33.979C45.784,33.215 46.15,32.26 46.116,31.112C46.08,29.968 45.68,29.014 44.916,28.25C44.152,27.486 43.18,27.104 42,27.104C40.819,27.104 39.847,27.486 39.083,28.25L28.25,39.083C27.416,39.917 27,40.889 27,42C27,43.111 27.416,44.083 28.25,44.917L39.187,55.854ZM42,83.667C36.236,83.667 30.819,82.572 25.75,80.383C20.68,78.197 16.271,75.229 12.521,71.479C8.771,67.729 5.802,63.319 3.616,58.25C1.427,53.18 0.333,47.764 0.333,42C0.333,36.236 1.427,30.819 3.616,25.75C5.802,20.68 8.771,16.271 12.521,12.521C16.271,8.771 20.68,5.801 25.75,3.612C30.819,1.426 36.236,0.333 42,0.333C47.764,0.333 53.18,1.426 58.25,3.612C63.319,5.801 67.729,8.771 71.479,12.521C75.229,16.271 78.197,20.68 80.383,25.75C82.572,30.819 83.666,36.236 83.666,42C83.666,47.764 82.572,53.18 80.383,58.25C78.197,63.319 75.229,67.729 71.479,71.479C67.729,75.229 63.319,78.197 58.25,80.383C53.18,82.572 47.764,83.667 42,83.667ZM42,75.333C51.236,75.333 59.101,72.087 65.595,65.596C72.087,59.101 75.333,51.236 75.333,42C75.333,32.764 72.087,24.898 65.595,18.404C59.101,11.912 51.236,8.667 42,8.667C32.764,8.667 24.9,11.912 18.408,18.404C11.914,24.898 8.666,32.764 8.666,42C8.666,51.236 11.914,59.101 18.408,65.596C24.9,72.087 32.764,75.333 42,75.333Z" fill="#525050"/>
</svg>
