<svg width="96" height="90" viewBox="0 0 96 90" fill="none" xmlns="http://www.w3.org/2000/svg" xmlns:xlink="http://www.w3.org/1999/xlink">
<path d="M62.677,45C62.677,47.848 61.775,50.632 60.086,53C58.397,55.368 55.996,57.214 53.186,58.304C50.377,59.394 47.286,59.679 44.304,59.123C41.321,58.568 38.582,57.196 36.432,55.182C34.282,53.168 32.817,50.603 32.224,47.809C31.631,45.016 31.935,42.121 33.099,39.489C34.263,36.858 36.233,34.609 38.762,33.027C41.29,31.445 44.262,30.6 47.303,30.6C51.376,30.612 55.28,32.133 58.16,34.831C61.041,37.529 62.664,41.185 62.677,45L62.677,45ZM95.347,25.2L95.347,64.8C95.347,71.483 92.512,77.893 87.467,82.619C82.421,87.345 75.578,90 68.442,90L26.164,90C19.028,90 12.185,87.345 7.139,82.619C2.093,77.893 -0.741,71.483 -0.741,64.8L-0.741,25.2C-0.741,18.517 2.093,12.107 7.139,7.381C12.185,2.655 19.028,0 26.164,0L68.442,0C75.578,0 82.421,2.655 87.467,7.381C92.512,12.107 95.347,18.517 95.347,25.2L95.347,25.2ZM70.364,45C70.364,40.728 69.012,36.552 66.478,33C63.944,29.448 60.342,26.679 56.128,25.044C51.914,23.409 47.277,22.982 42.804,23.815C38.33,24.648 34.221,26.706 30.996,29.726C27.771,32.747 25.575,36.596 24.685,40.786C23.795,44.976 24.252,49.319 25.997,53.266C27.743,57.213 30.698,60.586 34.491,62.96C38.283,65.333 42.742,66.6 47.303,66.6C53.419,66.6 59.285,64.324 63.61,60.274C67.934,56.223 70.364,50.729 70.364,45ZM78.051,21.6C78.051,20.532 77.713,19.488 77.08,18.6C76.446,17.712 75.546,17.02 74.492,16.611C73.439,16.202 72.279,16.095 71.161,16.304C70.043,16.512 69.015,17.026 68.209,17.782C67.403,18.537 66.854,19.499 66.631,20.547C66.409,21.594 66.523,22.68 66.959,23.666C67.396,24.653 68.135,25.497 69.083,26.09C70.031,26.683 71.146,27 72.286,27C73.815,27 75.281,26.431 76.363,25.418C77.444,24.406 78.051,23.032 78.051,21.6Z" fill="#525050"/>
</svg>
