<svg width="28" height="46" viewBox="0 0 28 46" fill="none" xmlns="http://www.w3.org/2000/svg" xmlns:xlink="http://www.w3.org/1999/xlink">
<path d="M1.78,43.233C1.195,42.65 0.902,41.959 0.902,41.161C0.902,40.365 1.195,39.675 1.78,39.092L18.93,22L1.722,4.85C1.175,4.306 0.902,3.625 0.902,2.808C0.902,1.992 1.195,1.292 1.78,0.708C2.366,0.125 3.059,-0.167 3.859,-0.167C4.658,-0.167 5.351,0.125 5.936,0.708L25.602,20.367C25.836,20.6 26.003,20.853 26.101,21.125C26.198,21.397 26.246,21.689 26.246,22C26.246,22.311 26.198,22.603 26.101,22.875C26.003,23.147 25.836,23.4 25.602,23.633L5.877,43.292C5.331,43.836 4.658,44.108 3.859,44.108C3.059,44.108 2.366,43.817 1.78,43.233Z" fill="#525050"/>
</svg>
