<svg width="34" height="88" viewBox="0 0 34 88" fill="none" xmlns="http://www.w3.org/2000/svg" xmlns:xlink="http://www.w3.org/1999/xlink">
<path d="M5.088,86.75C3.988,86.753 2.922,86.244 2.075,85.312C1.598,84.788 1.204,84.143 0.915,83.416C0.626,82.689 0.448,81.893 0.391,81.075C0.334,80.256 0.399,79.431 0.583,78.645C0.767,77.86 1.066,77.131 1.462,76.5L22.558,43L2.216,9.437C1.825,8.798 1.533,8.062 1.356,7.273C1.18,6.483 1.123,5.655 1.189,4.836C1.254,4.017 1.441,3.224 1.739,2.501C2.036,1.778 2.438,1.141 2.922,0.625C3.409,0.056 3.98,-0.373 4.598,-0.636C5.216,-0.898 5.868,-0.988 6.514,-0.9C7.16,-0.812 7.784,-0.548 8.349,-0.124C8.914,0.299 9.407,0.874 9.797,1.562L32.541,39.062C33.234,40.181 33.612,41.583 33.612,43.031C33.612,44.479 33.234,45.881 32.541,47L8.997,84.5C8.524,85.256 7.924,85.854 7.245,86.245C6.566,86.636 5.827,86.809 5.088,86.75Z" fill="#231F20"/>
</svg>
