<svg width="200" height="156" viewBox="0 0 200 156" fill="none" xmlns="http://www.w3.org/2000/svg" xmlns:xlink="http://www.w3.org/1999/xlink">
<path d="M43.3,59.181C43.338,55.081 43.3,51.019 43.3,46.925L43.3,34.669C43.3,34.219 43.438,33.975 43.788,33.731C47.782,30.956 52.157,29.531 57.05,29.875C61.388,30.188 64.932,32.306 66.807,37.413C67.95,40.5 68.232,43.731 68.232,47.031C68.232,50.05 67.988,53.038 67.05,55.919C65.069,62.1 60.557,64.494 54.657,64.219C50.594,64.044 47.05,62.481 43.757,60.156C43.444,59.881 43.269,59.6 43.307,59.181L43.3,59.181ZM97.082,64.25C98.675,64.875 100.307,64.944 101.975,64.769C106.007,64.35 109.582,62.788 112.844,60.431C113.157,60.225 113.294,59.981 113.294,59.563C113.257,58.206 113.294,56.819 113.294,55.469C113.294,54.081 113.257,52.694 113.294,51.3C113.294,50.813 113.157,50.606 112.669,50.538C110.238,50.225 107.844,49.775 105.413,49.531C102.982,49.325 100.55,49.425 98.188,50.188C95.863,50.95 94.125,52.344 93.432,54.738C92.875,56.613 92.875,58.488 93.463,60.363C93.705,61.255 94.161,62.075 94.79,62.752C95.419,63.429 96.203,63.943 97.075,64.25L97.082,64.25ZM200,16.888L200,139.113C199.998,143.533 198.242,147.772 195.116,150.897C191.991,154.023 187.752,155.78 183.332,155.781L16.663,155.781C12.243,155.78 8.004,154.023 4.878,150.897C1.752,147.772 -0.004,143.533 -0.006,139.113L-0.006,16.888C-0.004,12.467 1.752,8.228 4.878,5.103C8.004,1.977 12.243,0.22 16.663,0.219L183.332,0.219C187.752,0.22 191.991,1.977 195.116,5.103C198.242,8.228 199.998,12.467 200,16.888L200,16.888ZM127.95,25.188C128.088,25.781 128.263,26.369 128.507,26.956C134.238,41.056 139.932,55.188 145.694,69.281C146.182,70.494 146.282,71.506 145.763,72.719C144.788,74.869 144.063,77.094 143.057,79.213C142.15,81.125 140.732,82.513 138.644,83.1C137.18,83.464 135.663,83.57 134.163,83.413C133.432,83.344 132.707,83.169 131.975,83.138C131,83.069 130.519,83.519 130.482,84.525C130.444,85.485 130.444,86.446 130.482,87.406C130.513,89 131.038,89.731 132.632,90.013C134.263,90.288 135.894,90.569 137.563,90.6C142.525,90.706 146.488,88.725 149.057,84.381C150.063,82.681 151,80.875 151.732,79.038C158.607,61.644 165.444,44.213 172.288,26.781C172.494,26.263 172.669,25.738 172.738,25.181C172.875,24.35 172.494,23.931 171.663,23.9C169.719,23.869 167.807,23.9 165.863,23.9C164.788,23.9 164.025,24.388 163.644,25.394C163.507,25.775 163.332,26.194 163.194,26.575L153.088,55.638C152.357,57.756 151.632,59.838 150.832,62.094L150.557,61.438L139.307,30.256C138.711,28.606 138.098,26.963 137.469,25.325C137.157,24.456 136.532,23.938 135.594,23.938C133.372,23.891 131.148,23.878 128.925,23.9C128.163,23.9 127.782,24.456 127.95,25.181L127.95,25.188ZM84.169,60.638C84.763,64.7 86.807,67.863 90.419,69.875C93.857,71.788 97.607,72.025 101.425,71.469C105.838,70.813 109.725,68.931 113.163,66.088C113.3,65.981 113.438,65.881 113.65,65.738C113.825,66.85 113.963,67.888 114.169,68.931C114.344,69.838 114.9,70.425 115.732,70.463C117.325,70.494 118.888,70.494 120.488,70.463C121.288,70.425 121.807,69.906 121.875,69.106C121.913,68.831 121.913,68.55 121.913,68.306L121.913,37.475C121.913,36.225 121.844,34.975 121.669,33.725C121.113,29.975 119.519,26.888 116.15,24.906C114.2,23.813 112.052,23.116 109.832,22.856C108.788,22.719 107.75,22.613 106.669,22.475L103.194,22.475C102.919,22.506 102.638,22.575 102.325,22.575C99.491,22.682 96.675,23.089 93.925,23.788C92.157,24.238 90.45,24.9 88.719,25.488C87.675,25.838 87.157,26.6 87.194,27.744C87.225,28.719 87.157,29.688 87.194,30.625C87.225,32.05 87.819,32.431 89.175,32.05C91.432,31.463 93.725,30.838 96.013,30.381C99.588,29.725 103.2,29.444 106.813,29.963C108.688,30.238 110.457,30.794 111.707,32.394C112.782,33.781 113.163,35.45 113.238,37.15C113.344,39.544 113.307,41.975 113.344,44.375C113.344,44.513 113.313,44.619 113.275,44.794C113.138,44.794 113,44.794 112.894,44.763C109.841,44.009 106.727,43.532 103.588,43.338C100.288,43.163 97.025,43.375 93.9,44.45C90.15,45.769 87.132,48.025 85.357,51.675C83.932,54.556 83.757,57.575 84.175,60.631L84.169,60.638ZM34.269,26.231L34.269,87.1C34.269,87.375 34.269,87.688 34.307,87.969C34.375,88.838 34.894,89.394 35.732,89.425C37.782,89.463 39.832,89.463 41.882,89.425C42.75,89.425 43.269,88.838 43.307,88C43.344,87.725 43.344,87.413 43.344,87.131L43.344,66.056C43.657,66.3 43.832,66.475 44,66.613C49.207,70.95 55.182,72.375 61.744,71.094C67.682,69.913 71.775,66.269 74.488,60.956C76.5,56.931 77.369,52.588 77.507,48.106C77.682,43.144 77.157,38.244 75.144,33.625C72.682,27.931 68.582,24.144 62.4,22.894C61.463,22.688 60.488,22.613 59.55,22.475L57.119,22.475C56.7,22.544 56.288,22.575 55.869,22.65C51.871,23.14 48.068,24.658 44.832,27.056C44.138,27.544 43.475,28.1 42.782,28.619C42.75,28.444 42.675,28.344 42.644,28.2C42.507,27.4 42.4,26.6 42.263,25.806C42.057,24.45 41.394,23.894 40.044,23.863L36.675,23.863C34.625,23.825 34.282,24.213 34.282,26.225L34.269,26.231ZM171.388,106.819C170.45,106.575 169.619,106.819 168.75,107.169C148.867,115.491 127.621,120.082 106.075,120.713C96.838,120.947 87.596,120.447 78.438,119.219C72.25,118.385 66.109,117.238 60.038,115.781C47.211,112.728 34.779,108.206 22.988,102.306C19.932,100.781 16.944,99.075 13.925,97.444C12.607,96.713 11.769,96.925 11.075,98.175L11.075,98.763C11.494,99.319 11.838,99.944 12.363,100.431C24.863,111.613 38.957,120.05 54.725,125.744C62.332,128.488 70.144,130.5 78.094,131.819C82.957,132.619 87.819,133.138 92.75,133.381C93.794,133.419 94.832,133.45 95.875,133.519C96.119,133.519 96.363,133.588 96.607,133.625L102.75,133.625C102.994,133.594 103.238,133.519 103.482,133.519C108.657,133.381 113.832,132.894 118.969,132.131C126.375,131.027 133.679,129.319 140.807,127.025C151.088,123.694 160.844,119.25 169.763,113.1C170.738,112.438 171.744,111.781 172.538,110.944C174.032,109.419 173.338,107.331 171.394,106.813L171.388,106.819ZM188.888,97.2C188.613,95.744 187.5,95.188 186.25,94.769C184.267,94.141 182.214,93.757 180.138,93.625C176.334,93.306 172.505,93.493 168.75,94.181C164.582,94.944 160.625,96.3 157.119,98.731C156.687,98.994 156.32,99.351 156.044,99.775C155.848,100.136 155.786,100.554 155.869,100.956C155.975,101.406 156.463,101.513 156.913,101.475C157.119,101.475 157.332,101.475 157.538,101.438L164.307,100.706C167.638,100.394 170.975,100.188 174.307,100.431C175.732,100.538 177.119,100.85 178.475,101.194C179.969,101.575 180.625,102.719 180.694,104.213C180.8,106.538 180.275,108.763 179.688,110.981C178.475,115.463 176.807,119.8 175.069,124.106C174.963,124.381 174.825,124.694 174.794,124.975C174.657,125.844 175.144,126.363 175.975,126.188C176.495,126.073 176.975,125.821 177.363,125.456C178.65,124.206 179.969,122.956 181.044,121.569C184.763,116.775 186.944,111.288 188.232,105.388C188.475,104.344 188.65,103.269 188.819,102.231C188.888,100.6 188.888,98.9 188.888,97.194L188.888,97.2Z" fill="#525050"/>
</svg>
