<svg width="54" height="60" viewBox="0 0 54 60" fill="none" xmlns="http://www.w3.org/2000/svg" xmlns:xlink="http://www.w3.org/1999/xlink">
<path d="M27,34.833C26.174,34.833 25.481,34.553 24.923,33.993C24.363,33.435 24.083,32.743 24.083,31.916C24.083,31.09 24.363,30.397 24.923,29.837C25.481,29.279 26.174,29 27,29C27.826,29 28.52,29.279 29.08,29.837C29.638,30.397 29.917,31.09 29.917,31.916C29.917,32.743 29.638,33.435 29.08,33.993C28.52,34.553 27.826,34.833 27,34.833ZM15.333,34.833C14.507,34.833 13.814,34.553 13.254,33.993C12.696,33.435 12.417,32.743 12.417,31.916C12.417,31.09 12.696,30.397 13.254,29.837C13.814,29.279 14.507,29 15.333,29C16.16,29 16.853,29.279 17.413,29.837C17.971,30.397 18.25,31.09 18.25,31.916C18.25,32.743 17.971,33.435 17.413,33.993C16.853,34.553 16.16,34.833 15.333,34.833ZM38.667,34.833C37.84,34.833 37.148,34.553 36.59,33.993C36.03,33.435 35.75,32.743 35.75,31.916C35.75,31.09 36.03,30.397 36.59,29.837C37.148,29.279 37.84,29 38.667,29C39.493,29 40.185,29.279 40.743,29.837C41.303,30.397 41.583,31.09 41.583,31.916C41.583,32.743 41.303,33.435 40.743,33.993C40.185,34.553 39.493,34.833 38.667,34.833ZM27,46.5C26.174,46.5 25.481,46.22 24.923,45.66C24.363,45.102 24.083,44.409 24.083,43.583C24.083,42.757 24.363,42.064 24.923,41.506C25.481,40.946 26.174,40.666 27,40.666C27.826,40.666 28.52,40.946 29.08,41.506C29.638,42.064 29.917,42.757 29.917,43.583C29.917,44.409 29.638,45.102 29.08,45.66C28.52,46.22 27.826,46.5 27,46.5ZM15.333,46.5C14.507,46.5 13.814,46.22 13.254,45.66C12.696,45.102 12.417,44.409 12.417,43.583C12.417,42.757 12.696,42.064 13.254,41.506C13.814,40.946 14.507,40.666 15.333,40.666C16.16,40.666 16.853,40.946 17.413,41.506C17.971,42.064 18.25,42.757 18.25,43.583C18.25,44.409 17.971,45.102 17.413,45.66C16.853,46.22 16.16,46.5 15.333,46.5ZM38.667,46.5C37.84,46.5 37.148,46.22 36.59,45.66C36.03,45.102 35.75,44.409 35.75,43.583C35.75,42.757 36.03,42.064 36.59,41.506C37.148,40.946 37.84,40.666 38.667,40.666C39.493,40.666 40.185,40.946 40.743,41.506C41.303,42.064 41.583,42.757 41.583,43.583C41.583,44.409 41.303,45.102 40.743,45.66C40.185,46.22 39.493,46.5 38.667,46.5ZM6.583,58.166C4.979,58.166 3.605,57.596 2.462,56.454C1.321,55.311 0.75,53.937 0.75,52.333L0.75,11.5C0.75,9.896 1.321,8.523 2.462,7.381C3.605,6.238 4.979,5.666 6.583,5.666L9.5,5.666L9.5,-0.167L15.333,-0.167L15.333,5.666L38.667,5.666L38.667,-0.167L44.5,-0.167L44.5,5.666L47.417,5.666C49.021,5.666 50.395,6.238 51.538,7.381C52.679,8.523 53.25,9.896 53.25,11.5L53.25,52.333C53.25,53.937 52.679,55.311 51.538,56.454C50.395,57.596 49.021,58.166 47.417,58.166L6.583,58.166ZM6.583,52.333L47.417,52.333L47.417,23.166L6.583,23.166L6.583,52.333Z" fill="#525050"/>
</svg>
