<svg width="34" height="20" viewBox="0 0 34 20" fill="none" xmlns="http://www.w3.org/2000/svg" xmlns:xlink="http://www.w3.org/1999/xlink">
<path d="M1.541,18.875C1.007,18.34 0.739,17.66 0.739,16.833C0.739,16.007 1.007,15.326 1.541,14.792L14.958,1.375C15.25,1.083 15.566,0.876 15.906,0.754C16.246,0.633 16.611,0.573 17,0.573C17.389,0.573 17.766,0.646 18.131,0.792C18.495,0.938 18.798,1.132 19.041,1.375L32.458,14.792C32.993,15.326 33.26,16.007 33.26,16.833C33.26,17.66 32.993,18.34 32.458,18.875C31.923,19.41 31.243,19.677 30.416,19.677C29.59,19.677 28.909,19.41 28.375,18.875L17,7.5L5.625,18.875C5.09,19.41 4.409,19.677 3.583,19.677C2.757,19.677 2.076,19.41 1.541,18.875L1.541,18.875Z" fill="#525050"/>
</svg>
