<svg width="34" height="88" viewBox="0 0 34 88" fill="none" xmlns="http://www.w3.org/2000/svg" xmlns:xlink="http://www.w3.org/1999/xlink">
<path d="M27.127,87.165C26.423,87.168 25.728,86.965 25.092,86.57C24.457,86.175 23.897,85.599 23.453,84.884L0.708,47.884C0.015,46.78 -0.363,45.396 -0.363,43.968C-0.363,42.539 0.015,41.155 0.708,40.052L24.254,3.052C25.053,1.793 26.202,1.001 27.447,0.85C28.692,0.7 29.932,1.203 30.894,2.25C31.856,3.297 32.46,4.801 32.575,6.432C32.69,8.062 32.305,9.686 31.506,10.945L10.456,43.999L30.8,77.052C31.376,77.957 31.741,79.059 31.854,80.228C31.966,81.397 31.821,82.584 31.434,83.648C31.048,84.712 30.437,85.608 29.673,86.232C28.91,86.855 28.026,87.179 27.127,87.165L27.127,87.165Z" fill="#231F20"/>
</svg>
