<svg width="98" height="90" viewBox="0 0 98 90" fill="none" xmlns="http://www.w3.org/2000/svg" xmlns:xlink="http://www.w3.org/1999/xlink">
<path d="M96.659,45.113C96.659,20.211 75.135,0 48.615,0C22.094,0 0.57,20.211 0.57,45.113C0.57,66.947 17.097,85.128 39.006,89.323L39.006,58.647L29.397,58.647L29.397,45.113L39.006,45.113L39.006,33.835C39.006,25.128 46.549,18.045 55.821,18.045L67.832,18.045L67.832,31.579L58.223,31.579C55.581,31.579 53.419,33.609 53.419,36.09L53.419,45.113L67.832,45.113L67.832,58.647L53.419,58.647L53.419,90C77.681,87.744 96.659,68.526 96.659,45.113Z" fill="#525050"/>
</svg>
