<svg width="98" height="90" viewBox="0 0 98 90" fill="none" xmlns="http://www.w3.org/2000/svg" xmlns:xlink="http://www.w3.org/1999/xlink">
<path d="M96.724,10.588C93.187,12.441 89.375,13.659 85.425,14.241C89.467,11.435 92.59,6.988 94.06,1.641C90.248,4.288 86.022,6.141 81.567,7.2C77.938,2.647 72.84,0 67.052,0C56.259,0 47.44,10.165 47.44,22.712C47.44,24.512 47.624,26.259 47.945,27.9C31.593,26.947 17.033,17.894 7.342,4.182C5.642,7.518 4.678,11.435 4.678,15.565C4.678,23.453 8.123,30.441 13.451,34.412C10.189,34.412 7.158,33.353 4.494,31.765L4.494,31.924C4.494,42.935 11.292,52.147 20.294,54.212C17.404,55.123 14.37,55.25 11.43,54.582C12.677,59.095 15.12,63.045 18.416,65.874C21.711,68.704 25.693,70.272 29.802,70.359C22.837,76.714 14.204,80.149 5.321,80.1C3.759,80.1 2.197,79.994 0.636,79.782C9.363,86.241 19.743,90 30.859,90C67.052,90 86.941,55.376 86.941,25.359C86.941,24.353 86.941,23.4 86.895,22.394C90.753,19.218 94.06,15.194 96.724,10.588L96.724,10.588Z" fill="#525050"/>
</svg>
