<svg width="36" height="60" viewBox="0 0 36 60" fill="none" xmlns="http://www.w3.org/2000/svg" xmlns:xlink="http://www.w3.org/1999/xlink">
<path d="M13,51.333L23,51.333L23,48.667L13,48.667L13,51.333ZM5.5,59.333C4.125,59.333 2.948,58.812 1.97,57.768C0.99,56.723 0.5,55.467 0.5,54L0.5,6C0.5,4.533 0.99,3.277 1.97,2.232C2.948,1.189 4.125,0.667 5.5,0.667L30.5,0.667C31.875,0.667 33.053,1.189 34.033,2.232C35.011,3.277 35.5,4.533 35.5,6L35.5,54C35.5,55.467 35.011,56.723 34.033,57.768C33.053,58.812 31.875,59.333 30.5,59.333L5.5,59.333ZM5.5,40.667L30.5,40.667L30.5,14L5.5,14L5.5,40.667Z" fill="#525050"/>
</svg>
