<svg width="200" height="156" viewBox="0 0 200 156" fill="none" xmlns="http://www.w3.org/2000/svg" xmlns:xlink="http://www.w3.org/1999/xlink">
<path d="M64.688,78.763C64.688,83 61.319,86.225 57.05,86.225C53.857,86.225 51.494,84.419 51.494,81.019C51.494,76.781 54.794,73.381 59.032,73.381C62.263,73.381 64.694,75.363 64.694,78.763L64.688,78.763ZM27.95,61.925L26.319,61.925C25.8,61.925 25.275,62.275 25.207,62.863L23.713,72.138L26.563,72.031C30.382,72.031 33.332,71.513 34.025,67.1C34.825,62.444 31.875,61.925 27.95,61.925L27.95,61.925ZM126.563,61.925L125,61.925C124.375,61.925 123.957,62.275 123.888,62.863L122.432,72.138L125.207,72.031C129.719,72.031 132.844,70.988 132.844,65.781C132.807,62.1 129.513,61.925 126.557,61.925L126.563,61.925ZM200,16.887L200,139.113C199.998,143.533 198.242,147.772 195.116,150.897C191.991,154.023 187.752,155.78 183.332,155.781L16.663,155.781C12.243,155.78 8.004,154.023 4.878,150.897C1.752,147.772 -0.004,143.533 -0.006,139.113L-0.006,16.887C-0.004,12.467 1.752,8.228 4.878,5.103C8.004,1.977 12.243,0.22 16.663,0.219L183.332,0.219C187.752,0.22 191.991,1.977 195.116,5.103C198.242,8.228 199.998,12.467 200,16.887L200,16.887ZM44.55,63.9C44.55,56.606 38.925,54.175 32.5,54.175L18.613,54.175C18.164,54.178 17.733,54.346 17.4,54.647C17.067,54.948 16.856,55.36 16.807,55.806L11.113,91.256C11.007,91.95 11.532,92.644 12.225,92.644L18.825,92.644C19.763,92.644 20.632,91.638 20.738,90.663L22.3,81.425C22.65,78.925 26.882,79.794 28.55,79.794C38.482,79.794 44.557,73.894 44.557,63.894L44.55,63.9ZM73.788,66.956L67.188,66.956C65.869,66.956 65.8,68.869 65.732,69.806C63.719,66.856 60.8,66.331 57.5,66.331C48.994,66.331 42.5,73.794 42.5,82.025C42.5,88.794 46.738,93.206 53.507,93.206C56.632,93.206 60.519,91.506 62.707,89.075C62.505,89.777 62.387,90.501 62.357,91.231C62.357,92.031 62.707,92.619 63.469,92.619L69.444,92.619C70.382,92.619 71.182,91.613 71.357,90.638L74.9,68.313C75.007,67.65 74.482,66.956 73.788,66.956L73.788,66.956ZM87.85,100.95L109.969,68.794C110.144,68.619 110.144,68.444 110.144,68.206C110.144,67.619 109.625,66.994 109.032,66.994L102.363,66.994C102.053,67.006 101.75,67.091 101.478,67.242C101.207,67.393 100.975,67.605 100.8,67.863L91.6,81.406L87.782,68.388C87.638,67.992 87.379,67.648 87.038,67.4C86.697,67.153 86.29,67.014 85.869,67L79.375,67C78.782,67 78.263,67.625 78.263,68.213C78.263,68.631 85.032,87.938 85.625,89.775C84.688,91.094 78.507,99.706 78.507,100.75C78.507,101.375 79.025,101.863 79.619,101.863L86.288,101.863C86.6,101.842 86.903,101.75 87.174,101.594C87.445,101.438 87.676,101.222 87.85,100.963L87.85,100.95ZM143.163,63.9C143.163,56.606 137.538,54.175 131.113,54.175L117.325,54.175C116.864,54.171 116.416,54.334 116.065,54.634C115.714,54.934 115.482,55.35 115.413,55.806L109.788,91.225C109.719,91.919 110.238,92.613 110.9,92.613L118.019,92.613C118.713,92.613 119.232,92.094 119.407,91.5L120.969,81.431C121.319,78.931 125.557,79.8 127.219,79.8C137.082,79.8 143.157,73.9 143.157,63.9L143.163,63.9ZM172.394,66.956L165.794,66.956C164.475,66.956 164.407,68.869 164.3,69.806C162.388,66.856 159.438,66.331 156.069,66.331C147.563,66.331 141.069,73.794 141.069,82.025C141.069,88.794 145.307,93.206 152.075,93.206C155.307,93.206 159.194,91.506 161.275,89.075C161.169,89.594 160.925,90.706 160.925,91.231C160.925,92.031 161.275,92.619 162.038,92.619L168.044,92.619C168.982,92.619 169.782,91.613 169.957,90.638L173.5,68.313C173.607,67.65 173.082,66.956 172.388,66.956L172.394,66.956ZM188.888,55.394C188.888,54.7 188.369,54.181 187.775,54.181L181.35,54.181C180.832,54.181 180.307,54.6 180.238,55.119L174.613,91.231L174.513,91.406C174.513,92.031 175.032,92.619 175.725,92.619L181.457,92.619C182.325,92.619 183.194,91.613 183.263,90.638L188.888,55.5L188.888,55.394ZM157.638,73.381C153.4,73.381 150.1,76.75 150.1,81.019C150.1,84.388 152.532,86.225 155.725,86.225C159.894,86.225 163.263,83.031 163.263,78.763C163.3,75.363 160.869,73.381 157.638,73.381L157.638,73.381Z" fill="#525050"/>
</svg>
