<svg width="66" height="64" viewBox="0 0 66 64" fill="none" xmlns="http://www.w3.org/2000/svg" xmlns:xlink="http://www.w3.org/1999/xlink">
<path d="M31.083,62.417C30.319,61.653 29.919,60.681 29.883,59.5C29.849,58.319 30.215,57.347 30.978,56.583L51.395,36.167L4.833,36.167C3.652,36.167 2.662,35.767 1.862,34.967C1.065,34.169 0.666,33.181 0.666,32C0.666,30.819 1.065,29.829 1.862,29.029C2.662,28.232 3.652,27.833 4.833,27.833L51.395,27.833L30.978,7.417C30.215,6.653 29.849,5.681 29.883,4.5C29.919,3.319 30.319,2.347 31.083,1.583C31.847,0.819 32.819,0.438 33.999,0.438C35.18,0.438 36.152,0.819 36.916,1.583L64.416,29.083C64.833,29.431 65.129,29.864 65.303,30.383C65.476,30.906 65.562,31.444 65.562,32C65.562,32.556 65.476,33.076 65.303,33.563C65.129,34.049 64.833,34.5 64.416,34.917L36.916,62.417C36.152,63.181 35.18,63.563 33.999,63.563C32.819,63.563 31.847,63.181 31.083,62.417L31.083,62.417Z" fill="#7C7C7C"/>
</svg>
