<svg width="36" height="36" viewBox="0 0 36 36" fill="none" xmlns="http://www.w3.org/2000/svg" xmlns:xlink="http://www.w3.org/1999/xlink">
<path d="M17.5,26.25C17.996,26.25 18.412,26.082 18.748,25.746C19.083,25.411 19.25,24.996 19.25,24.5L19.25,19.25L24.544,19.25C25.04,19.25 25.448,19.082 25.769,18.746C26.09,18.411 26.25,17.996 26.25,17.5C26.25,17.004 26.082,16.588 25.746,16.252C25.411,15.917 24.996,15.75 24.5,15.75L19.25,15.75L19.25,10.456C19.25,9.96 19.083,9.552 18.748,9.231C18.412,8.91 17.996,8.75 17.5,8.75C17.004,8.75 16.589,8.917 16.254,9.252C15.918,9.588 15.75,10.004 15.75,10.5L15.75,15.75L10.456,15.75C9.96,15.75 9.552,15.917 9.231,16.252C8.91,16.588 8.75,17.004 8.75,17.5C8.75,17.996 8.917,18.411 9.252,18.746C9.588,19.082 10.004,19.25 10.5,19.25L15.75,19.25L15.75,24.544C15.75,25.04 15.918,25.448 16.254,25.769C16.589,26.09 17.004,26.25 17.5,26.25L17.5,26.25ZM17.5,35C15.079,35 12.804,34.54 10.675,33.621C8.546,32.703 6.694,31.456 5.119,29.881C3.544,28.306 2.297,26.454 1.379,24.325C0.46,22.196 0,19.921 0,17.5C0,15.079 0.46,12.804 1.379,10.675C2.297,8.546 3.544,6.694 5.119,5.119C6.694,3.544 8.546,2.297 10.675,1.377C12.804,0.459 15.079,0 17.5,0C19.921,0 22.196,0.459 24.325,1.377C26.454,2.297 28.306,3.544 29.881,5.119C31.456,6.694 32.703,8.546 33.621,10.675C34.54,12.804 35,15.079 35,17.5C35,19.921 34.54,22.196 33.621,24.325C32.703,26.454 31.456,28.306 29.881,29.881C28.306,31.456 26.454,32.703 24.325,33.621C22.196,34.54 19.921,35 17.5,35Z" fill="#525050"/>
</svg>
