<svg width="200" height="76" viewBox="0 0 200 76" fill="none" xmlns="http://www.w3.org/2000/svg" xmlns:xlink="http://www.w3.org/1999/xlink">
<path d="M200,17.331L173.894,75.662L165.819,75.662L175.519,55.25L158.331,17.325L166.825,17.325L179.263,46.394L179.425,46.394L191.469,17.325L200,17.331ZM91.538,35.369L91.538,59L83.331,59L83.331,0.669L105.044,0.669C110.198,0.527 115.217,2.328 119.106,5.712C122.95,8.869 125.063,13.331 125,18.05C125.027,20.425 124.509,22.774 123.488,24.918C122.466,27.062 120.967,28.943 119.106,30.419C115.331,33.737 110.644,35.369 105.044,35.369L91.538,35.369ZM91.506,7.862L91.506,28.206L105.244,28.206C108.235,28.313 111.147,27.238 113.35,25.212C115.469,23.325 116.638,20.75 116.638,18.081C116.638,15.381 115.463,12.806 113.35,10.95C112.271,9.923 110.999,9.121 109.607,8.59C108.216,8.059 106.733,7.809 105.244,7.856L91.506,7.862ZM141.438,17.331C146.644,17.331 150.781,18.794 153.806,21.694C156.831,24.594 158.331,28.562 158.331,33.606L158.331,57.725L151.563,57.725L151.563,52.287L151.269,52.287C148.338,56.75 144.463,58.994 139.613,58.994C135.444,58.994 131.994,57.725 129.194,55.15C127.843,53.954 126.768,52.479 126.042,50.827C125.317,49.175 124.96,47.385 124.994,45.581C124.994,41.544 126.456,38.325 129.419,35.912C132.35,33.537 136.288,32.331 141.2,32.331C145.4,32.331 148.85,33.144 151.55,34.737L151.55,33.044C151.559,31.814 151.305,30.597 150.804,29.474C150.304,28.351 149.57,27.347 148.65,26.531C146.798,24.797 144.35,23.842 141.813,23.862C137.875,23.862 134.75,25.587 132.438,29.037L126.219,25C129.638,19.887 134.713,17.319 141.419,17.319L141.438,17.331ZM132.294,45.75C132.28,46.676 132.485,47.593 132.892,48.425C133.299,49.256 133.898,49.98 134.638,50.537C136.2,51.806 138.156,52.494 140.138,52.456C143.1,52.456 145.963,51.219 148.081,49.037C150.325,46.956 151.6,44.025 151.6,40.962C149.388,39.137 146.325,38.225 142.388,38.225C139.488,38.225 137.113,38.944 135.194,40.375C133.275,41.837 132.294,43.6 132.294,45.744L132.294,45.75ZM34.019,0.669C42.434,0.567 50.571,3.676 56.775,9.362L47.075,18.869C43.532,15.581 38.852,13.796 34.019,13.887C29.802,13.908 25.695,15.242 22.271,17.704C18.847,20.166 16.275,23.634 14.913,27.625C13.481,31.759 13.481,36.254 14.913,40.387C16.275,44.379 18.847,47.846 22.271,50.308C25.695,52.77 29.802,54.104 34.019,54.125C38.606,54.125 42.55,52.987 45.606,50.969C47.365,49.824 48.872,48.333 50.035,46.587C51.199,44.841 51.995,42.876 52.375,40.812L34.013,40.812L34.013,27.987L66.075,27.987C66.469,30.231 66.663,32.481 66.663,34.756C66.663,44.912 62.95,53.506 56.538,59.3C50.906,64.381 43.194,67.337 34.013,67.337C27.746,67.369 21.592,65.672 16.227,62.433C10.862,59.193 6.495,54.536 3.606,48.975C1.231,44.341 -0.008,39.208 -0.008,34C-0.008,28.792 1.231,23.659 3.606,19.025C6.492,13.469 10.853,8.816 16.21,5.576C21.568,2.337 27.714,0.637 33.975,0.662L34.019,0.669Z" fill="#525050"/>
</svg>
